<?xml version="1.0" encoding="utf-8"?>
<!-- Generator: Adobe Illustrator 22.1.0, SVG Export Plug-In . SVG Version: 6.00 Build 0)  -->
<svg version="1.1" id="Layer_1" xmlns="http://www.w3.org/2000/svg" xmlns:xlink="http://www.w3.org/1999/xlink" x="0px" y="0px"
	 viewBox="0 0 42 42" style="enable-background:new 0 0 42 42;" xml:space="preserve">
<style type="text/css">
	.st0{fill:#B24161;}
</style>
<path class="st0" d="M21.4,7.7V2.5l-6.9,6.9l6.9,6.9v-5.1c5.7,0,10.4,4.6,10.4,10.3c0,1.7-0.4,3.3-1.2,4.8l2.5,2.5
	c1.4-2.2,2.1-4.7,2.1-7.3C35.3,13.8,29.1,7.7,21.4,7.7z M21.4,31.7c-5.7,0-10.4-4.6-10.4-10.3c0-1.7,0.4-3.4,1.2-4.8l-2.5-2.5
	c-1.4,2.2-2.1,4.7-2.1,7.3c0,7.6,6.2,13.7,13.8,13.7v5.1l6.9-6.9l-6.9-6.9V31.7z"/>
</svg>
